<svg fill="#fff" xmlns="http://www.w3.org/2000/svg" xmlns:xlink="http://www.w3.org/1999/xlink" width="24" height="24">
  <defs>
    <path id="prefix__ic_facebook-a" d="M12 1c6.075 0 11 4.925 11 11s-4.925 11-11 11S1 18.075 1 12 5.925 1 12 1zm0 1.719A9.281 9.281 0 0 0 2.719 12 9.281 9.281 0 0 0 12 21.281 9.281 9.281 0 0 0 21.281 12 9.281 9.281 0 0 0 12 2.719zM13.166 6.5l1.417.007v1.885h-1.236c-.207 0-.65.1-.65.528v1.396h1.913l-.295 1.942h-1.618V17.5h-1.905v-5.242H9.39v-1.942h1.402v-1.51c0-.9.441-2.306 2.374-2.306z"/>
  </defs>
  <use xlink:href="#prefix__ic_facebook-a"/>
</svg>
