<svg fill="#fff" xmlns="http://www.w3.org/2000/svg" xmlns:xlink="http://www.w3.org/1999/xlink" width="24" height="24">
  <defs>
    <path id="prefix__ic_instagram-a" d="M12 1c6.075 0 11 4.925 11 11s-4.925 11-11 11S1 18.075 1 12 5.925 1 12 1zm0 1.719A9.281 9.281 0 0 0 2.719 12 9.281 9.281 0 0 0 12 21.281 9.281 9.281 0 0 0 21.281 12 9.281 9.281 0 0 0 12 2.719zm2.061 4.311c.533.025.895.108 1.214.232.33.128.608.3.886.577.254.25.451.552.576.886.124.319.208.681.233 1.214.024.533.03.703.03 2.061s-.005 1.528-.03 2.061c-.025.533-.109.895-.232 1.214a2.442 2.442 0 0 1-.577.886 2.46 2.46 0 0 1-.886.576c-.319.124-.681.208-1.214.233-.533.024-.703.03-2.061.03s-1.528-.005-2.061-.03c-.533-.025-.895-.109-1.214-.232a2.445 2.445 0 0 1-.886-.577 2.452 2.452 0 0 1-.577-.886c-.123-.319-.207-.681-.232-1.214-.02-.439-.027-.631-.03-1.444v-1.234c.002-.813.01-1.005.03-1.444.025-.533.108-.895.232-1.214a2.44 2.44 0 0 1 .577-.886c.25-.254.552-.451.886-.577.319-.123.681-.207 1.214-.232.439-.02.631-.027 1.444-.03h1.234c.813.002 1.005.01 1.444.03zM12 9.5a2.5 2.5 0 1 0 0 5 2.5 2.5 0 0 0 0-5zm0 1a1.5 1.5 0 1 1 0 3 1.5 1.5 0 0 1 0-3zm2.625-1.75a.625.625 0 1 0 0 1.25.625.625 0 0 0 0-1.25z"/>
  </defs>
  <use xlink:href="#prefix__ic_instagram-a"/>
</svg>
