<svg fill="#fff" xmlns="http://www.w3.org/2000/svg" xmlns:xlink="http://www.w3.org/1999/xlink" width="23" height="24">
  <defs>
    <path id="prefix__ic_medium-a" d="M12 1c6.075 0 11 4.925 11 11s-4.925 11-11 11S1 18.075 1 12 5.925 1 12 1zm0 1.719A9.281 9.281 0 0 0 2.719 12 9.281 9.281 0 0 0 12 21.281 9.281 9.281 0 0 0 21.281 12 9.281 9.281 0 0 0 12 2.719zM9.827 8l2.465 5.406L14.46 8h3.04v.184l-.878.842a.256.256 0 0 0-.098.245v6.186a.256.256 0 0 0 .098.246l.858.84v.185h-4.315v-.184l.89-.862c.086-.086.086-.114.086-.246v-4.998l-2.472 6.274h-.334L8.46 10.438v4.205a.573.573 0 0 0 .16.482l1.155 1.4v.185H6.5v-.182l1.155-1.403a.554.554 0 0 0 .148-.482V9.78a.43.43 0 0 0-.139-.36L6.64 8.184V8h3.188z"/>
  </defs>
  <use xlink:href="#prefix__ic_medium-a"/>
</svg>
