<svg fill="#fff" xmlns="http://www.w3.org/2000/svg" xmlns:xlink="http://www.w3.org/1999/xlink" width="25" height="24">
  <defs>
    <path id="prefix__ic_twitter-a" d="M12 1c6.075 0 11 4.925 11 11s-4.925 11-11 11S1 18.075 1 12 5.925 1 12 1zm0 1.719A9.281 9.281 0 0 0 2.719 12 9.281 9.281 0 0 0 12 21.281 9.281 9.281 0 0 0 21.281 12 9.281 9.281 0 0 0 12 2.719zm2.13 4.469c.646 0 1.228.29 1.641.755l-.001-.001c.323 0 .938-.254 1.296-.464l.12-.076c-.121.502-.613 1.134-.946 1.327.519-.055 1.075-.275 1.26-.385a4.088 4.088 0 0 1-1.1 1.25v.082c.154 3.941-2.69 7.136-6.35 7.136a6.455 6.455 0 0 1-3.55-1.08c1.537.262 2.779-.562 3.143-1.014-1.021 0-1.956-.94-2.028-1.66.206.034.677.079.944-.076-1.386-.41-1.766-1.537-1.75-2.388.231.242.724.298.99.275-.78-.52-1.375-1.946-.687-3.228 1.12 1.57 3.107 2.488 4.807 2.535a2.638 2.638 0 0 1-.058-.545c0-1.35 1.017-2.444 2.27-2.444z"/>
  </defs>
  <use xlink:href="#prefix__ic_twitter-a"/>
</svg>
