<svg xmlns="http://www.w3.org/2000/svg" width="455" height="330">
  <g fill="none" fill-rule="evenodd">
    <path fill="#FFF" d="M438.441 93.239a.936.936 0 1 0 1.87 0 .936.936 0 0 0-1.87 0M413.357 196.94a.934.934 0 1 0 1.869 0 .936.936 0 0 0-1.869 0m-.936-171.86a.936.936 0 1 0 1.872 0 .936.936 0 0 0-1.872 0m-113.507-7.12a.936.936 0 1 0 1.871 0 .936.936 0 0 0-1.87 0m-116.317.936a.936.936 0 1 0 1.872.003.936.936 0 0 0-1.872-.003M137.08 52.429a.936.936 0 1 0 1.87 0 .936.936 0 0 0-1.87 0M29.604 212.587a.936.936 0 1 0 1.871 0 .936.936 0 0 0-1.87 0m-13.794 65.954a.936.936 0 1 0 1.872.003.936.936 0 0 0-1.872-.003"/>
    <path fill="#FFD7C7" d="M100.225 48.268l-.385-.039c-.06-.005-.118-.002-.177-.007-.061-.008-.118-.02-.178-.027l-.41-.04c-6.669-.657-12.605 4.23-13.26 10.912l-.44 4.5-1.112-.11a4.275 4.275 0 0 0-1.614.156 4.312 4.312 0 0 0-3.1 3.724l-.015.145a4.32 4.32 0 0 0 3.871 4.724l1.113.11-.07.713-.022.229a12.151 12.151 0 0 0 .23 3.804l-1.364 12.79c-.444 4.164 2.564 7.9 6.72 8.346l.255.027c4.156.444 7.884-2.57 8.329-6.735l.538-5.057c5.173-.965 9.31-5.246 9.85-10.758l.412-4.216.302-3.093.748-7.624c.615-6.274-3.962-11.859-10.221-12.474"/>
    <path fill="#39374A" d="M100.073 69.178a.718.718 0 1 1-1.428-.14.718.718 0 0 1 1.428.14"/>
    <path stroke="#E18C77" stroke-linecap="round" stroke-width=".5" d="M102.843 66.119l-.066 3.314c.082.421.478.72.987.74.591.025 1.02.418 1.008.926l-.014.485c-.017.618-.645 1.162-1.373 1.191l-2.519.1"/>
    <path fill="#39374A" d="M107.449 69.813a.715.715 0 0 1-.783.644.719.719 0 0 1 .14-1.43c.394.04.682.391.643.786"/>
    <path stroke="#E18C77" stroke-linecap="round" stroke-width=".5" d="M97.966 81.545s1.336-.277 2.009.873"/>
    <path fill="#39374A" d="M96.222 65.278c.363.144.807.048 1.24-.017.434-.075.874-.138 1.256-.176.385-.038.827-.065 1.269-.077.435-.024.891-.019 1.215-.232.313-.2.402-.693-.044-1.242-.42-.536-1.435-1.064-2.706-.94-1.27.132-2.152.85-2.45 1.46-.32.626-.129 1.091.22 1.224m13.517 1.295c-.353-.001-.723-.208-1.09-.385-.368-.188-.74-.367-1.07-.511-.33-.144-.715-.298-1.101-.44-.38-.15-.784-.283-1.02-.54-.231-.243-.197-.638.323-.913.494-.274 1.513-.36 2.606.115 1.09.48 1.705 1.283 1.828 1.826.136.565-.137.853-.476.848"/>
    <path stroke="#E18C77" stroke-linecap="round" stroke-width=".5" d="M83.032 66.051l.866 2.432-1.525.523"/>
    <path fill="#FB8E77" d="M93.58 70.878s1.984 1.93 4.285 3.053c2.3 1.122-.893 4.534-4.468 3.024-3.571-1.51-1.653-7.126.183-6.077"/>
    <path stroke="#FFD7C7" stroke-linecap="round" stroke-width=".5" d="M93.198 73.192c.737.525.91 1.549.386 2.288"/>
    <path stroke="#E18C77" stroke-linecap="round" stroke-width=".5" d="M98.402 69.968s.877-.507 1.572.112m5.906.556s.878-.507 1.572.112"/>
    <path fill="#E18C77" d="M109.016 75.336c-.614 6.273-6.186 10.859-12.446 10.242l-.384-.037c-6.26-.616-10.835-6.2-10.22-12.474l.059-.604-1.507-.148-.093.944c-.655 6.682 4.22 12.632 10.889 13.288l.41.04c6.668.657 12.604-4.23 13.26-10.912l.715-7.308-.683 6.969z"/>
    <path fill="#F78781" d="M83.405 72.206a4.32 4.32 0 0 1-3.87-4.723l.015-.146a4.315 4.315 0 0 1 3.099-3.725l.46-4.685c-1.43-.212-2.444-1.71-2.065-3.21l.079-.309a2.38 2.38 0 0 1 .66-1.115c-.022-.149-.034-.302-.048-.452l-5.379 5.82a8.835 8.835 0 0 1-8.596 2.583 3.064 3.064 0 0 1-3.115 2.027c.411 3.096 2.761 5.761 6.066 6.342l13.736 2.417.07-.715-1.112-.109z"/>
    <path fill="#FFFFFD" d="M67.76 62.244c.01-.03.027-.055.037-.086a3.08 3.08 0 0 0-1.974-3.878 3.071 3.071 0 0 0-3.871 1.979 3.082 3.082 0 0 0 1.975 3.88c.238.076.48.114.717.132a3.064 3.064 0 0 0 3.116-2.027"/>
    <path fill="#39374A" d="M111.034 49.251c-.107.212-.24.415-.414.596-1.99 2.061-5.401 4.774-10.759 6.707.775 4.39 4.154 4.29 9.501 4.375 2.49.04 4.152-1.225 4.396-3.705a10.167 10.167 0 0 0-2.724-7.973M84.263 63.458l1.112.108 1.506.15 1.077.105c.006 0 .014.004.02.004 0-2.017.195-3.656.531-4.988a55.945 55.945 0 0 1-5.11.132c-.1-.003-.194-.028-.29-.042l-.46 4.685a4.303 4.303 0 0 1 1.614-.154"/>
    <path fill="#E25E59" d="M57.985 94.828c2.35-4.653 7.33-7.642 12.794-7.193l.329.031 25.758 2.758c8.042.861 14.501 6.214 17.212 13.296l.134.361.124-.058 10.667 19.282a40.57 40.57 0 0 0 8.173 10.349l.52.465 20.571 18.847c.717.656.413 1.83-.491 2.077l-.121.027-14.465 2.513a3.077 3.077 0 0 1-1.944-.3l-.196-.11-25.166-15.467-4.77 38.932-58.68-6.284 1.604-14.677-.435.078c-6.282.917-12.086-3.47-12.964-9.733l-.038-.295a11.43 11.43 0 0 1 .303-4.24c.078-.42.18-.84.307-1.257l.135-.417 20.624-48.99.015.005zm34-55.83c6.433-2.03 13.293.81 17.04 6.5a2.205 2.205 0 0 0-1.543.46l-.143.124c-.177.164-.369.309-.55.467-7.36 6.387-18.229 7.1-22.908 7.078l-.513-.003c-.616-.01-1.166.253-1.586.67-.02-.15-.033-.302-.047-.453-.006-.073-.022-.143-.022-.218.017-6.625 3.99-12.643 10.271-14.625z"/>
    <path fill="#FFFFFD" d="M111.034 49.251c.66-1.303.09-3.056-1.366-3.611a2.282 2.282 0 0 0-.643-.142 2.203 2.203 0 0 0-1.685.583c-.179.165-.369.31-.552.468-7.477 6.491-18.578 7.122-23.129 7.077-.094-.001-.202 0-.291-.002-.617-.01-1.166.254-1.586.669a2.375 2.375 0 0 0-.659 1.116l-.079.308c-.38 1.5.635 2.998 2.065 3.21.096.014.19.04.29.042a56.166 56.166 0 0 0 5.11-.131c.9-.064 1.748-.164 2.59-.267 3.364-.416 6.285-1.125 8.762-2.017 5.358-1.933 8.769-4.646 10.759-6.707.174-.18.307-.384.414-.596"/>
    <path fill="#F78781" d="M129.355 325.516c.06-5.034-3.962-9.165-8.986-9.226l-8.247-.1.097-8.025-16.43-.199-.208 17.283a2.925 2.925 0 0 0 2.886 2.965l13.506.163 17.345.21.037-3.07z"/>
    <path fill="#282F39" d="M129.307 329.432l-33.772-.41.035-2.928 33.772.41z"/>
    <path stroke="#E8E8E8" stroke-linecap="round" stroke-linejoin="round" stroke-width=".637" d="M112.93 316.632c-.32.098-.582-.296-.431-.645.628-1.447 2.01-4.072 3.192-2.453 1.194 1.634-1.395 2.678-2.76 3.098z"/>
    <path stroke="#E8E8E8" stroke-linecap="round" stroke-linejoin="round" stroke-width=".637" d="M107.76 315.792c.165-2.53 3.045-.87 4.474.119.223.154.27.468.167.702a.486.486 0 0 1-.263.259c-1.543.592-4.541 1.431-4.378-1.08m4.811.985s.252 3.23-1.804 4.501"/>
    <path fill="#F78781" d="M51.239 326.864h16.269v-17.756H51.239z"/>
    <path fill="#ED7572" d="M53.128 320.564l12.216-.148-.034-2.934a4.528 4.528 0 0 0-4.577-4.477l-2.768.033a4.936 4.936 0 0 0-4.867 5l.03 2.526z"/>
    <path fill="#F78781" d="M59.655 316.276c.151-.002.301.004.449.016l-.086-.002c5.022.061 9.045 4.191 8.984 9.226l-.037 3.072-9.7-.118-9.7.118-.037-3.072c-.06-4.946 3.822-9.02 8.72-9.219l.794-.017.613-.004z"/>
    <path fill="#282F39" d="M68.245 329.423l-18.017-.218a.71.71 0 0 1-.7-.719l.018-1.507a.71.71 0 0 1 .718-.703l18.017.22a.71.71 0 0 1 .7.72l-.019 1.505a.708.708 0 0 1-.717.702"/>
    <path fill="#39374A" d="M107.114 180.637l-57.643-6.172-.007.062-1.029-.173.964 134.754h20.697l8.397-89.735 15.349 89.735h21.631z"/>
    <path fill="#CE5252" d="M50.039 159.678l42.885-7.654-43.376 12.133zm17.469-43.911l-8.844 21.429h29.482l-26.033-3.082z"/>
    <path fill="#FFFFFD" d="M98.216 95.83l-14.534-1.556a3.915 3.915 0 0 1-3.471-4.312l.048-.457a3.911 3.911 0 0 1 4.303-3.478l14.533 1.556a3.913 3.913 0 0 1 3.471 4.311l-.048.456a3.91 3.91 0 0 1-4.302 3.48"/>
    <path fill="#F78781" d="M352.682 312.736v12.19a2.927 2.927 0 0 1-2.75 2.923l-.172.005h-22.338c0-4.947 3.931-8.972 8.832-9.111l.264-.004h3.876v-6.003h12.288zm82.022-102.44a2.92 2.92 0 0 1 3.992.172l.13.142 14.55 16.986a9.08 9.08 0 0 1-12.636-.766l-.188-.212-2.525-2.948-4.545 3.91-8.005-9.343 9.227-7.941z"/>
    <path fill="#282F39" d="M453.855 227.184L437.4 207.977l-1.659 1.426 16.456 19.208z"/>
    <path stroke="#E8E8E8" stroke-linecap="round" stroke-linejoin="round" stroke-width=".637" d="M438.668 223.924c-.098-.233-.451-.193-.576.06-.526 1.057-1.364 3.11.129 3.012 1.506-.098.862-2.087.447-3.072z"/>
    <path stroke="#E8E8E8" stroke-linecap="round" stroke-linejoin="round" stroke-width=".637" d="M435.703 221.355c-1.368 1.31.966 2.168 2.217 2.514.196.055.398-.069.481-.241a.363.363 0 0 0 .022-.276c-.403-1.172-1.362-3.298-2.72-1.997m2.874 2.292s1.97-1.407 1.71-3.2"/>
    <path fill="#282F39" d="M327.423 328.486h25.26v-2.19h-25.26z"/>
    <path stroke="#E8E8E8" stroke-linecap="round" stroke-linejoin="round" stroke-width=".637" d="M339.784 319.062c.239.077.44-.217.33-.479-.458-1.088-1.467-3.064-2.366-1.864-.906 1.21 1.019 2.016 2.036 2.343z"/>
    <path stroke="#E8E8E8" stroke-linecap="round" stroke-linejoin="round" stroke-width=".637" d="M343.66 318.48c-.101-1.893-2.27-.678-3.347.048-.17.114-.206.349-.13.522a.353.353 0 0 0 .194.198c1.147.456 3.382 1.112 3.282-.768m-3.607.693s-.218 2.414 1.308 3.383"/>
    <path fill="#39374A" d="M424.031 215.765l-28.491 22.239-.789-47.665a73.18 73.18 0 0 0-5.617-26.927l-5.072-12.171-40.336 8.218-9.195 152.585h21.462l10.25-101.253 3.576 37.59c.754 13.268 9.749 18.534 16.249 20.612 3.768 1.207 7.891.2 10.747-2.544l38.98-37.443-11.764-13.241z"/>
    <path fill="#F78781" d="M358.435 64.638l5.645 5.526 7.136-2.426c4.456-1.513 6.548-6.627 4.432-10.839a9.234 9.234 0 0 1-12 .43l-8.952-7.114 3.739 14.423z"/>
    <path fill="#FFFFFD" d="M379.309 55.16a3.222 3.222 0 0 1-1.317 4.355 3.205 3.205 0 0 1-4.344-1.321 3.22 3.22 0 0 1 1.316-4.353 3.207 3.207 0 0 1 4.345 1.32"/>
    <path fill="#39374A" d="M368.61 79.588c-.024-.143.012-.338.116-.646 1.037-3.067 1.402-6.302-.46-9.142-1.174-1.788-2.86-2.636-4.667-3.627-2.23-1.221-4.533-2.314-6.789-3.487 0 0-5.528-13.687-21.437-9.47-18.413 4.883-15.039 13.532-12.92 16.833-.314 2.315-.049 3.985-.049 3.985l-4.082 6.711c-1.768 2.907-1.57 6.18.574 8.81.613.752 1.488 1.258 2.097 1.975.592.7-.02 1.182-.153 2.087-.154 1.066.061 2.186.554 3.14.781 1.51 2.181 2.627 3.706 3.374 2.83 1.389 5.87 1.224 7.765-1.46.139-.196 1.618-2.75 1.78-2.654 3.804 2.252 8.116 3.33 12.508 2.66 4.144-.634 8.034-2.767 10.71-6.015.746-.906 2.013-.533 2.897-.043.73.405 1.4.937 2.194 1.197 1.31.428 2.779.03 3.93-.732 2.377-1.577 4.316-4.47 4.548-7.342a6.882 6.882 0 0 0-.786-3.783 5.842 5.842 0 0 0-1.214-1.569c-.47-.424-.773-.503-.821-.802"/>
    <path fill="#E25E59" d="M331.697 53.107c8.428 6.866 20.853 6.608 25.502 6.227a2.311 2.311 0 0 1 1.7.561c.015-.223.041-.445.025-.675-.468-6.907-5.018-12.908-11.701-14.545-6.847-1.677-13.803 1.753-17.323 7.94a2.304 2.304 0 0 1 1.797.492"/>
    <path fill="#FFFFFD" d="M359.764 61.358l-.102-.318a2.518 2.518 0 0 0-.765-1.146 2.309 2.309 0 0 0-1.699-.56c-4.648.38-17.073.64-25.5-6.226a2.307 2.307 0 0 0-1.798-.494 2.43 2.43 0 0 0-.66.193c-1.723.787-2.095 3.187-.708 4.45 3.95 3.591 12.757 9.04 28.999 7.65 1.647-.14 2.764-1.909 2.233-3.55"/>
    <path fill="#FFD7C7" d="M355.96 77.233a4.336 4.336 0 0 0-3.708-3.836l-1.649.17c-3.942.408-7.6-2.808-8.927-7.483-1.696 1.977-4.118 3.506-7.193 4.25-.415.101.064-2.701-.38-2.628l-.934 2.803-3.893.425-.038-2.74-1.115 2.974-2.485.315-.05-.306c-.001.407.018.817.061 1.23l.748 7.086.186 1.751.343 3.258c.71 6.722 6.722 11.596 13.43 10.885.28-.03.554-.082.827-.13l1.9 7.563c.844 3.353 4.24 5.388 7.588 4.544 3.347-.845 5.375-4.25 4.533-7.603l-3.956-15.749c.04-.625.037-1.259-.022-1.902l.874-.092a4.349 4.349 0 0 0 3.86-4.785"/>
    <path fill="#FB8E77" d="M339.505 94.46c-6.296.668-11.94-3.907-12.606-10.217l-.502-4.75.529 5.01c.71 6.721 6.722 11.595 13.43 10.884 6.646-.704 11.474-6.628 10.87-13.277l-1.503.16c.411 6.128-4.071 11.54-10.218 12.19"/>
    <path fill="#39374A" d="M335.41 78.842a.71.71 0 0 0 .78.633.71.71 0 0 0 .63-.783.71.71 0 1 0-1.41.15m-7.074.576a.71.71 0 0 0 1.411-.15.71.71 0 1 0-1.41.15"/>
    <path stroke="#FB8E77" stroke-linecap="round" stroke-width=".5" d="M333.288 83.802c-.803.088-1.438.28-2.198-.168-.706-.418-1.303-1.314-1.116-2.16.083-.375.389-.662.76-.747l.76-.174.21-4.48m3.607 14.952s-.974-.937-2.142-.33"/>
    <path fill="#39374A" d="M338.952 74.377c-.293.085-.65.005-1-.052-.35-.065-.703-.123-1.012-.161-.31-.04-.668-.072-1.023-.096-.352-.03-.719-.04-.979-.197-.252-.145-.32-.48.045-.838.343-.349 1.168-.672 2.192-.545 1.023.131 1.731.646 1.966 1.068.253.434.095.742-.189.821m-12.248.682c.246.014.511-.114.775-.222.263-.114.53-.222.767-.31a16.1 16.1 0 0 1 .784-.258c.272-.087.558-.162.733-.33.172-.16.164-.436-.185-.65-.333-.213-1.038-.316-1.819-.033-.778.288-1.24.819-1.349 1.193-.121.387.057.598.294.61"/>
    <path stroke="#FB8E77" stroke-linecap="round" stroke-width=".5" d="M352.496 75.915l-.839 2.414 1.512.505"/>
    <path fill="#FB8E77" d="M339.937 81.066s-1.566 1.524-3.383 2.41c-1.816.885.705 3.58 3.526 2.387 2.82-1.192 1.307-5.626-.143-4.797"/>
    <path stroke="#FFD7C7" stroke-linecap="round" stroke-width=".5" d="M340.238 82.893a1.296 1.296 0 0 0-.304 1.805"/>
    <path fill="#E25E59" d="M388.688 145.48c-2.141-7.308-4.281-14.618-6.424-21.927-.857-2.927-1.706-5.86-2.572-8.785-1.443-4.86-1.916-10.25-5.561-14.095-4.126-4.352-10.242-6.33-16.054-4.859-1.627.411-3.284.723-4.923 1.084-3.457.76-6.916 1.523-10.374 2.284-6.26 1.379-9.9 4.1-10.398 9.743l-4.05 33.225 10.941.41c2.329 10.058 4.507 19.683 4.903 22.185.149.946 19.758-5.093 31.421-8.991 2.052 1.677 4.897 2.28 7.577 1.326 4.72-1.676 7.186-6.87 5.514-11.6"/>
    <path fill="#FFFFFD" d="M356.446 98.146l-15.473 3.537a1.292 1.292 0 0 1-1.548-.974l-.802-3.52a1.298 1.298 0 0 1 .972-1.553l15.474-3.538c.697-.16 1.39.277 1.548.974l.802 3.523a1.295 1.295 0 0 1-.973 1.55"/>
    <path fill="#F78781" d="M282.21 76.04l2.435 1.996c15.625 12.894 21.673 20.323 10.16 34.434-1.969 2.414-5.403 5.099-9.755 7.896l1.176-.42c9.563-3.385 18.008-5.588 23.105-5.226 17.773 1.262 17.595 18.932 16.233 39.012l-.176 2.522c-1.491 21.1-3.788 30.743-22.3 29.429-16.797-1.193-64.819-32.946-73.572-38.819l-3.546 1.417a609.2 609.2 0 0 1-1.742.687l.279 1.95-2.659-1.02-2.665 1.02.278-1.95-2.817-1.113c-1.024-.408-2.131-.85-3.308-1.326l-2.113 1.413c-11.895 7.913-56.008 36.608-71.96 37.74-17.957 1.275-20.657-7.76-22.164-27.56l-.27-3.761c-1.399-20.339-1.767-38.366 16.19-39.641 5.87-.417 16.181 2.569 27.527 6.841-5.255-3.226-9.413-6.335-11.661-9.091-11.631-14.255-5.34-21.691 10.642-34.83l1.954-1.6c15.77-12.874 30.254-23.572 41.649-9.605 8.026 9.837 15.062 45.662 18.716 67.376l.573-3.358c3.785-21.874 10.516-54.672 18.14-64.018 11.395-13.967 25.88-3.269 41.65 9.605z"/>
    <path fill="#FFF" d="M255.249 65.752c.395 1.874.626 4.01.7 6.442.433 14.669-22.704 55.196-32.488 71.646l.92 6.177.126.9-1.908-3.125c-.233-.384-.484-.8-.752-1.246l-2 3.294c-.43.701-.664 1.077-.664 1.077l.536-3.708c.143-.962.313-2.092.509-3.367l-1.897-3.21c-10.577-18.012-30.997-54.65-30.589-68.438.073-2.432.303-4.568.7-6.442.862-4.09 5.276-6.197 8.958-4.23 1.986 1.062 3.898 2.666 5.73 4.913 8.026 9.837 15.062 45.662 18.716 67.376l.573-3.358c3.785-21.874 10.516-54.673 18.14-64.018 1.832-2.247 3.745-3.851 5.731-4.912 3.681-1.968 8.095.139 8.959 4.23zm-122.23 48.968c18.512-1.315 81.194 31.215 81.194 31.215l-2.393-.154c-12.451-.838-69.775-5.197-82.98-15.14-1.942-1.462-3.548-2.884-4.849-4.287-2.836-3.065-2.008-7.895 1.719-9.776 2.01-1.013 4.421-1.653 7.309-1.858zm176.314 0c2.886.205 5.299.845 7.308 1.858 3.727 1.881 4.555 6.71 1.718 9.776-1.3 1.403-2.907 2.825-4.848 4.287-14.837 11.172-85.373 15.294-85.373 15.294l2.943-1.504c12.607-6.382 62.145-30.855 78.252-29.711z"/>
    <path fill="#EA938C" d="M202.403 100.937c.528-2.4 3.235-3.636 5.491-2.481 1.217.623 2.389 1.565 3.512 2.882 4.245 4.982 8.038 21.322 10.437 33.895l.307-1.588c2.338-11.952 5.849-26.505 9.752-31.11 1.092-1.287 2.23-2.206 3.41-2.813 2.191-1.126 4.818.079 5.332 2.421.235 1.074.372 2.297.416 3.691.235 7.664-11.205 27.656-17.633 38.256l.494 3.014c.381 2.383.586 3.813.586 3.813l-1.63-2.565c-.31-.494-.658-1.051-1.038-1.664l-2.656 4.23.39-2.584c.173-1.114.402-2.548.682-4.218l-1.419-2.342c-6.748-11.229-17.088-29.693-16.86-37.055.043-1.428.186-2.681.427-3.782z"/>
    <path fill="#C0D0EA" d="M331.411 329.8H110.94a4.576 4.576 0 0 1-4.57-4.582V163.782a4.576 4.576 0 0 1 4.57-4.58h220.472a4.578 4.578 0 0 1 4.572 4.58v161.436a4.577 4.577 0 0 1-4.572 4.582"/>
    <path fill="#889DBA" d="M106.368 180.032h229.615v-20.83H106.368z"/>
    <path fill="#ABC0DD" d="M342.725 169.616h-243.1a3.99 3.99 0 0 1-3.985-3.994v-23.68a3.99 3.99 0 0 1 3.985-3.995h243.1a3.99 3.99 0 0 1 3.986 3.994v23.68a3.99 3.99 0 0 1-3.986 3.995"/>
    <path fill="#FFF" d="M183.15 309.108a4.21 4.21 0 0 1 4.204 4.213 4.208 4.208 0 0 1-4.204 4.212 4.208 4.208 0 0 1-4.203-4.212 4.21 4.21 0 0 1 4.203-4.213zm74.209 0a4.21 4.21 0 0 1 4.204 4.213 4.208 4.208 0 0 1-4.204 4.212 4.208 4.208 0 0 1-4.204-4.212 4.21 4.21 0 0 1 4.204-4.213zm-125.46-1.459a3.046 3.046 0 0 1 3.043 3.05 3.046 3.046 0 0 1-3.043 3.05 3.046 3.046 0 0 1-3.042-3.05 3.046 3.046 0 0 1 3.042-3.05zm176.711 0a3.047 3.047 0 0 1 3.043 3.05 3.047 3.047 0 0 1-3.043 3.05 3.046 3.046 0 0 1-3.043-3.05 3.046 3.046 0 0 1 3.043-3.05zm-143.385-21.355a3.19 3.19 0 0 1 3.187 3.195 3.19 3.19 0 0 1-3.187 3.192 3.19 3.19 0 0 1-3.186-3.192 3.19 3.19 0 0 1 3.186-3.195zm110.06 0a3.19 3.19 0 0 1 3.185 3.195 3.19 3.19 0 0 1-3.186 3.192 3.189 3.189 0 0 1-3.186-3.192 3.19 3.19 0 0 1 3.186-3.195zm-146.427-10.41a3.59 3.59 0 0 1 3.585 3.595 3.59 3.59 0 0 1-3.585 3.593 3.59 3.59 0 0 1-3.589-3.593 3.59 3.59 0 0 1 3.589-3.595zm182.795 0a3.592 3.592 0 0 1 3.588 3.595 3.591 3.591 0 0 1-3.588 3.593 3.59 3.59 0 0 1-3.587-3.593 3.59 3.59 0 0 1 3.587-3.595zm-143.8-67.95a3.189 3.189 0 0 1 3.186 3.193 3.19 3.19 0 0 1-3.185 3.194 3.19 3.19 0 0 1-3.186-3.194 3.189 3.189 0 0 1 3.186-3.193zm104.803 0a3.19 3.19 0 0 1 3.187 3.193 3.19 3.19 0 0 1-3.187 3.194 3.19 3.19 0 0 1-3.186-3.194 3.19 3.19 0 0 1 3.186-3.193zm-84.92-19.419a4.21 4.21 0 0 1 4.203 4.213 4.21 4.21 0 0 1-4.203 4.213 4.208 4.208 0 0 1-4.203-4.213 4.208 4.208 0 0 1 4.203-4.213zm65.038 0a4.21 4.21 0 0 1 4.203 4.213 4.21 4.21 0 0 1-4.203 4.213 4.21 4.21 0 0 1-4.204-4.213 4.21 4.21 0 0 1 4.204-4.213zm-131.092 0a3.592 3.592 0 0 1 3.587 3.596 3.59 3.59 0 0 1-3.587 3.595 3.59 3.59 0 0 1-3.588-3.595 3.592 3.592 0 0 1 3.588-3.595zm197.145 0a3.592 3.592 0 0 1 3.588 3.596 3.59 3.59 0 0 1-3.588 3.595 3.59 3.59 0 0 1-3.586-3.595 3.591 3.591 0 0 1 3.586-3.595z"/>
    <path fill="#EA938C" d="M202.917 329.8h36.516V136.36h-36.516z"/>
    <path fill="#EA938C" d="M106.368 261.955h229.615v-39.264H106.368z"/>
    <path fill="#F78781" d="M193.033 261.955h9.884v-39.264h-9.884zm46.647 0h9.883v-39.264h-9.883z"/>
    <path fill="#FFB1A8" d="M261.47 115.056c5.59.2 11.237 1.83 16.232 4.813 5.022 2.94 9.369 7.296 12.418 12.486.708 1.317 1.41 2.658 2.04 4.022a87.158 87.158 0 0 1 1.536 4.215 354.93 354.93 0 0 1 1.816 5.988c2.307 8.016 4.334 16.104 6.236 24.223l4.474 18.624c.087.34.163.577.24.862l.302 1.1c.187.74.503 1.435.735 2.16 2.168 5.684 5.956 10.779 10.848 14.536 2.455 1.86 5.152 3.434 8.046 4.578l2.201.784 2.258.634 6.008 1.407c2.03.461 4.055.942 6.079 1.43l6.072 1.473c4.048.977 8.095 1.96 12.128 3.016l-15.826 6.338 12.194 12.449c-4.135-.531-8.257-1.135-12.375-1.745l-6.18-.906c-2.06-.305-4.12-.617-6.173-.95l-6.24-.994c-1.273-.253-2.55-.502-3.813-.81l-1.88-.527a59.802 59.802 0 0 1-1.871-.559c-4.953-1.632-9.703-3.964-14-6.974a55.655 55.655 0 0 1-11.502-10.719 55.961 55.961 0 0 1-8.009-13.614c-.463-1.235-.993-2.45-1.377-3.715a592.913 592.913 0 0 1-11.393-43.219l-1.052-4.79c-.664-2.98-1.415-5.946-2.7-8.707-3.318-7.128-10.658-10.896-18.387-10.342l-.38.03c-.79.062-1.606.126-2.387.352l-1.226.254c-.386.048-.975.3-1.453.44a201.873 201.873 0 0 1-6.104 1.906c-4.11 1.202-8.26 2.337-12.564 3.2l-.783-1.366c2.907-3.295 5.97-6.321 9.07-9.279 1.556-1.47 3.124-2.92 4.712-4.332.433-.362.715-.686 1.272-1.08l1.566-1.143c1.042-.793 2.188-1.426 3.366-2.042 4.704-2.457 10.239-3.73 15.827-3.507zm-80.59-.405c5.588-.222 11.122 1.05 15.827 3.508 1.01.527 1.995 1.067 2.912 1.71l2.02 1.474c.556.395.838.719 1.271 1.081a205.077 205.077 0 0 1 4.712 4.332c2.757 2.63 5.483 5.311 8.097 8.19l.975 1.089-.785 1.366c-4.304-.865-8.453-1.998-12.563-3.2-2.05-.607-4.088-1.24-6.104-1.907-.41-.12-.902-.321-1.277-.407l-.177-.032-1.225-.254c-.65-.188-1.326-.264-1.99-.32l-.397-.031c-7.866-.707-15.396 3.066-18.767 10.311-1.583 3.397-2.354 7.106-3.152 10.77-3.367 15.46-7.397 30.813-11.994 45.946-.383 1.263-.913 2.478-1.377 3.714a55.982 55.982 0 0 1-8.007 13.616 55.655 55.655 0 0 1-11.504 10.717c-4.295 3.012-9.047 5.343-14 6.974-1.239.397-2.5.733-3.75 1.087a68.73 68.73 0 0 1-2.858.62l-.955.19-6.24.995c-4.108.665-8.233 1.248-12.353 1.855-3.09.457-6.18.912-9.276 1.334l-3.099.41 12.193-12.448-15.826-6.34c4.033-1.055 8.08-2.037 12.13-3.014l6.07-1.473c1.013-.245 2.025-.487 3.038-.726l3.043-.705 6.007-1.407 2.258-.633 2.201-.785c2.893-1.144 5.59-2.717 8.046-4.577 4.891-3.757 8.68-8.852 10.849-14.536.185-.58.424-1.142.608-1.721l.126-.439.301-1.102c.092-.331.18-.598.285-1.04l.047-.202 4.383-18.242c1.902-8.12 3.928-16.207 6.236-24.223.593-2 1.186-3.998 1.817-5.99a86.59 86.59 0 0 1 1.534-4.213c.63-1.366 1.332-2.705 2.04-4.022 3.05-5.191 7.396-9.546 12.419-12.486 4.994-2.983 10.642-4.615 16.23-4.814z"/>
    <path fill="#EA938C" d="M231.522 122.828h-21.335c-4.014 0-7.27 3.262-7.27 7.286v8.708h36.524v-8.056c0-4.384-3.545-7.938-7.92-7.938"/>
    <path fill="#FFB1A8" d="M226.772 122.828h-10.49c-4.016 0-7.27 3.262-7.27 7.286v3.349h25.68v-2.697c0-4.384-3.545-7.938-7.92-7.938"/>
    <path fill="#FFD7C7" d="M107.59 138.854a1.148 1.148 0 0 0-1.411-.798l-.134.035a3.677 3.677 0 0 0-.155-.019c.428-.26.666-.77.523-1.275a1.149 1.149 0 0 0-1.411-.8l-10.49.887c-2.137.346-4.322.019-5.44 1.178l-.926.961 2.375 11.874c3.148-.145 15.585-6.322 15.585-6.322.526-.192.798-.782.605-1.31a1.003 1.003 0 0 0-.763-.63c.02-.055.028-.086.028-.086.022-.021.036-.04.055-.06l.492-.151c.604-.187.945-.833.76-1.437a1.138 1.138 0 0 0-.502-.63l.013-.003a1.15 1.15 0 0 0 .796-1.414m275.571 2.581l-33.292-9.844-.003-.008-.244-.066-.003-.002-1.04-.282c-1.553-.421-3.261.98-5.274 1.781l-7.857 4.186-1.605.44c-.608.165-.97.8-.805 1.41.139.507.603.824 1.104.826-.043.03-.082.064-.124.097l-.134.037c-.608.166-.97.8-.804 1.41.166.61.8.972 1.408.808l.011-.004a1.138 1.138 0 0 0-.108.798c.15.614.773.993 1.386.842l.499-.122.079.024s.024.022.069.059a1.002 1.002 0 0 0-.333.933 1.02 1.02 0 0 0 1.188.815s10.843-.772 14.834-1.914l23.794 14.066c4.771 2.695 10.814.488 12.74-4.65 1.775-4.736-.71-10.006-5.486-11.64"/>
  </g>
</svg>
